<?xml version="1.0" encoding="UTF-8"?>
<svg version="1.1" xmlns="http://www.w3.org/2000/svg" width="606" height="190">
<path d="M0 0 C5.60485219 -0.19806477 11.20766136 -0.34306251 16.81518555 -0.43945312 C18.72147097 -0.47963662 20.62751055 -0.53419687 22.53295898 -0.60351562 C25.27649491 -0.70080921 28.01677022 -0.74597204 30.76171875 -0.78125 C31.61086349 -0.82254028 32.46000824 -0.86383057 33.33488464 -0.90637207 C35.79487206 -0.90822907 37.67523586 -0.81217893 40 0 C42.30076468 2.38661707 43.63239655 5.00216199 45 8 C45.4640625 8.89396484 45.928125 9.78792969 46.40625 10.70898438 C46.7671875 11.49595703 47.128125 12.28292969 47.5 13.09375 C47.9125 13.97933594 48.325 14.86492188 48.75 15.77734375 C49.58333333 17.59244792 50.41666667 19.40755208 51.25 21.22265625 C53.82909516 26.75965118 56.65483749 31.88668017 60 37 C61.85629707 33.4594462 63.7096169 29.91734147 65.5625 26.375 C66.07619141 25.3953125 66.58988281 24.415625 67.11914062 23.40625 C71.17520465 15.64682316 75.08260115 7.8347977 79 0 C92.53 0 106.06 0 120 0 C119.34 1.98 118.68 3.96 118 6 C117.34 6 116.68 6 116 6 C115.62875 6.99 115.62875 6.99 115.25 8 C113.68182955 11.76360907 111.85494954 15.3711424 110 19 C109.34 19 108.68 19 108 19 C107.72414063 19.7115625 107.44828125 20.423125 107.1640625 21.15625 C104.06856795 28.71839777 100.19287327 35.822069 95.875 42.75 C90.09277428 50.76447808 90.09277428 50.76447808 88.4375 59.9375 C91.36854163 65.68234159 94.52807622 71.23741966 97.875 76.75 C100.30807929 80.77978758 102.62484102 84.86574757 104.875 89 C105.76832031 90.6396875 105.76832031 90.6396875 106.6796875 92.3125 C108 95 108 95 108 97 C108.66 97 109.32 97 110 97 C111.40941913 99.01687578 112.68633007 101.01293333 113.9375 103.125 C114.28490234 103.69476563 114.63230469 104.26453125 114.99023438 104.8515625 C121.19010823 115.12630636 121.19010823 115.12630636 121 122 C117.07141081 122.05012431 113.14295016 122.08605502 109.21411133 122.10986328 C107.23447104 122.12464917 105.25491937 122.15008592 103.27539062 122.17578125 C83.3701049 122.27656751 83.3701049 122.27656751 79.42871094 118.49072266 C78.06121166 116.39414227 77.03702032 114.27823979 76 112 C75.01444789 110.15339365 74.02321845 108.3098099 73.02734375 106.46875 C71.9940347 104.48091023 70.96413921 102.49129266 69.9375 100.5 C69.42123047 99.50613281 68.90496094 98.51226562 68.37304688 97.48828125 C65.53516437 92.01496391 62.74140038 86.52224538 60 81 C58.68 83.31 57.36 85.62 56 88 C55.34 88 54.68 88 54 88 C53.77054687 88.804375 53.54109375 89.60875 53.3046875 90.4375 C51.66975841 94.90173753 49.46230347 98.87053673 47.125 103 C46.69058594 103.78117187 46.25617188 104.56234375 45.80859375 105.3671875 C44.95461946 106.89049299 44.08841491 108.40701914 43.20898438 109.91577148 C42.45157688 111.22150407 41.71923672 112.54246674 41.02539062 113.88305664 C40.1015625 115.53515625 40.1015625 115.53515625 38 118 C34.953125 118.62109375 34.953125 118.62109375 31.25 118.4375 C30.24259766 118.40076172 30.24259766 118.40076172 29.21484375 118.36328125 C27.69016777 118.30370244 26.1660161 118.22961881 24.64257812 118.14404297 C21.63232635 117.97995866 18.62203667 117.86507293 15.609375 117.75390625 C9.73807576 117.53258478 3.868945 117.2763932 -2 117 C-2.65625 115.27587891 -2.65625 115.27587891 -3 113 C-2.03125 110.86865234 -2.03125 110.86865234 -0.5 108.5859375 C0.05397461 107.74764404 0.60794922 106.90935059 1.17871094 106.0456543 C1.77973633 105.16433838 2.38076172 104.28302246 3 103.375 C3.60360352 102.46854736 4.20720703 101.56209473 4.82910156 100.62817383 C8.24371382 95.51960096 11.75196957 90.48375102 15.32421875 85.484375 C17.95494237 81.58428123 20.33276245 77.53550283 22.71118164 73.4777832 C25.29206226 69.09191075 28.07283276 64.95278886 31.19921875 60.9296875 C32.23879485 58.97436089 32.23879485 58.97436089 31.40234375 56.72265625 C29.63488053 53.29111902 27.79118834 49.91249093 25.875 46.5625 C25.47611572 45.85947754 25.07723145 45.15645508 24.66625977 44.43212891 C23.4474861 42.28617964 22.22425693 40.14282486 21 38 C20.30331002 36.77738671 19.60669118 35.55473288 18.91015625 34.33203125 C17.60105548 32.03786455 16.28987577 29.74488282 14.9765625 27.453125 C13.61257244 25.07018584 12.25271643 22.68530782 10.8984375 20.296875 C10.20336302 19.07278148 9.50805414 17.84882103 8.8125 16.625 C8.48048584 16.04057129 8.14847168 15.45614258 7.80639648 14.85400391 C5.94735222 11.59986127 4.02186946 8.40525543 2 5.25 C0 2 0 2 0 0 Z " fill="#FFFFFF" transform="translate(430,28)"/>
<path d="M0 0 C32.67 0 65.34 0 99 0 C99 25.00666667 99 25.00666667 87.53515625 38.18359375 C85.14588379 41.01059551 82.90820963 43.95201633 80.6484375 46.8828125 C78.49809387 49.64462826 76.2460959 52.31564149 74 55 C72.74696642 56.5600683 71.49729796 58.1228422 70.25 59.6875 C63.98384427 67.53197315 57.72736088 75.34722366 50.921875 82.734375 C48.41107633 85.69425962 46.22685412 88.82097377 44 92 C44.58450928 91.96970703 45.16901855 91.93941406 45.77124023 91.90820312 C64.52624614 90.96982123 83.22783344 90.89590296 102 91 C102 99.58 102 108.16 102 117 C98.58587769 117.17390259 98.58587769 117.17390259 95.1027832 117.35131836 C87.57886439 117.73509949 80.05515922 118.12294805 72.53155231 118.51279354 C67.97043254 118.7490088 63.409251 118.98385772 58.84790039 119.21557617 C54.44516891 119.43928724 50.04263661 119.66659771 45.64021873 119.89639473 C43.96139291 119.98339356 42.28249958 120.06909981 40.60354042 120.15348625 C38.25023115 120.27198863 35.89720479 120.39510298 33.54418945 120.51928711 C32.8515097 120.55309479 32.15882996 120.58690247 31.44515991 120.62173462 C27.87340797 120.81531895 24.49279155 121.24127451 21 122 C19.10053697 122.08921618 17.1984308 122.13060798 15.296875 122.1328125 C14.2346875 122.13410156 13.1725 122.13539063 12.078125 122.13671875 C10.97984375 122.13285156 9.8815625 122.12898438 8.75 122.125 C7.63625 122.12886719 6.5225 122.13273437 5.375 122.13671875 C4.31796875 122.13542969 3.2609375 122.13414062 2.171875 122.1328125 C0.7192627 122.13112061 0.7192627 122.13112061 -0.76269531 122.12939453 C-3 122 -3 122 -4 121 C-5.10823541 112.99854037 -5.72550681 103.7928593 -2.34375 96.359375 C-0.06316275 93.35606644 2.36182633 90.69297253 5 88 C6.68002108 85.99025516 8.34663041 83.96922689 10 81.9375 C10.84046875 80.93976563 11.6809375 79.94203125 12.546875 78.9140625 C14.80486304 76.23180282 17.03384003 73.52934797 19.25 70.8125 C37.81780431 48.0857695 37.81780431 48.0857695 45.8293457 38.9050293 C49.74830481 34.38695764 53.30783222 29.74707286 57 25 C38.19 25 19.38 25 0 25 C0 16.75 0 8.5 0 0 Z " fill="#FFFFFF" transform="translate(57,28)"/>
<path d="M0 0 C30.69 0 61.38 0 93 0 C93 8.25 93 16.5 93 25 C73.53 25 54.06 25 34 25 C34 33.25 34 41.5 34 50 C52.15 50 70.3 50 89 50 C89 58.58 89 67.16 89 76 C61.775 76.495 61.775 76.495 34 77 C34 89.54 34 102.08 34 115 C15.37180544 116.16426216 15.37180544 116.16426216 8.0625 116.125 C7.28455078 116.12886719 6.50660156 116.13273437 5.70507812 116.13671875 C0.12695826 116.12695826 0.12695826 116.12695826 -1 115 C-1.10334751 112.49723533 -1.13937379 110.02298123 -1.1328125 107.51953125 C-1.13413177 106.71148041 -1.13545105 105.90342957 -1.1368103 105.07089233 C-1.13877287 102.31805968 -1.13225266 99.56532297 -1.125 96.8125 C-1.12411377 95.86235016 -1.12322754 94.91220032 -1.12231445 93.93325806 C-1.10714873 79.76424357 -0.96191856 65.59727586 -0.7734375 51.4296875 C-0.76384632 50.70859928 -0.75425514 49.98751106 -0.74437332 49.24457169 C-0.52316104 32.82932315 -0.25498627 16.41474088 0 0 Z " fill="#FFFFFF" transform="translate(174,28)"/>
<path d="M0 0 C11.22 0 22.44 0 34 0 C34 29.37 34 58.74 34 89 C52.81 89 71.62 89 91 89 C91 97.58 91 106.16 91 115 C71.33101904 115.05409139 51.67999067 114.86439783 32.01452637 114.53643799 C28.27207977 114.47450993 24.52959287 114.41511747 20.78710938 114.35546875 C13.5246995 114.23936618 6.2623366 114.12060831 -1 114 C-1.136827 75.98102028 -0.83508394 38.0112314 0 0 Z " fill="#FFFFFF" transform="translate(279,28)"/>
<path d="M0 0 C10.56 0 21.12 0 32 0 C32 38.28 32 76.56 32 116 C7.625 116 7.625 116 -1 115 C-1.02341305 103.69722976 -1.04105993 92.39446552 -1.05181217 81.09167576 C-1.05697879 75.84048657 -1.06395977 70.58931425 -1.07543945 65.33813477 C-1.12191507 43.52798278 -1.12702494 21.7861908 0 0 Z " fill="#FFFFFF" transform="translate(382,28)"/>
</svg>
